<?xml version="1.0" encoding="UTF-8" standalone="no"?>
<!-- Created with Inkscape (http://www.inkscape.org/) -->

<svg
   id="svg3829"
   version="1.1"
   viewBox="0 0 80.532379 36.159035"
   height="36.159035mm"
   width="80.532379mm"
   xml:space="preserve"
   sodipodi:docname="osh-tool-logo.svg"
   inkscape:version="1.2.2 (b0a8486541, 2022-12-01)"
   inkscape:export-filename="../../assets/media/img/osh-tool-logo.png"
   inkscape:export-xdpi="300.23"
   inkscape:export-ydpi="300.23"
   xmlns:inkscape="http://www.inkscape.org/namespaces/inkscape"
   xmlns:sodipodi="http://sodipodi.sourceforge.net/DTD/sodipodi-0.dtd"
   xmlns="http://www.w3.org/2000/svg"
   xmlns:svg="http://www.w3.org/2000/svg"
   xmlns:rdf="http://www.w3.org/1999/02/22-rdf-syntax-ns#"
   xmlns:cc="http://creativecommons.org/ns#"
   xmlns:dc="http://purl.org/dc/elements/1.1/"><sodipodi:namedview
     id="namedview461"
     pagecolor="#ffffff"
     bordercolor="#666666"
     borderopacity="1.0"
     inkscape:showpageshadow="2"
     inkscape:pageopacity="0.0"
     inkscape:pagecheckerboard="0"
     inkscape:deskcolor="#d1d1d1"
     inkscape:document-units="mm"
     showgrid="false"
     inkscape:zoom="0.78568575"
     inkscape:cx="-458.19846"
     inkscape:cy="-13.364122"
     inkscape:window-width="1918"
     inkscape:window-height="1078"
     inkscape:window-x="0"
     inkscape:window-y="0"
     inkscape:window-maximized="1"
     inkscape:current-layer="osh-tool-logo" /><title
     id="title5115">osh-tool logo</title><defs
     id="defs3826"><rect
   x="105.53529"
   y="9.9802322"
   width="190.01176"
   height="198.21089"
   id="rect899" />
	
</defs><metadata
     id="metadata5113"><rdf:RDF><cc:Work
         rdf:about=""><dc:contributor><cc:Agent><dc:title>Macklin Chaffee
Robin Vobruba &lt;hoijui.quaero@gmail.com&gt;
https://svgrepo.com</dc:title></cc:Agent></dc:contributor><dc:subject><rdf:Bag><rdf:li>open source hardware</rdf:li><rdf:li>logo</rdf:li><rdf:li>osh-tool</rdf:li></rdf:Bag></dc:subject><dc:language>agnostic</dc:language><dc:source>https://github.com/osegermany/osh-logo</dc:source><dc:identifier>osh_tool_logo</dc:identifier><dc:publisher><cc:Agent><dc:title>Open Source Ecology Germany</dc:title></cc:Agent></dc:publisher><dc:rights><cc:Agent><dc:title>Open Source Ecology Germany</dc:title></cc:Agent></dc:rights><dc:creator><cc:Agent><dc:title>Robin Vobruba &lt;hoijui.quaero@gmail.com&gt;</dc:title></cc:Agent></dc:creator><dc:date>15.11.2023</dc:date><dc:description>The osh-tool logo, combined from the clean reproduction of the well known OSH logo gear, and a wrench from svgrepo.com</dc:description><dc:title>osh-tool logo</dc:title><cc:license
           rdf:resource="http://creativecommons.org/licenses/by-sa/4.0/" /></cc:Work><cc:License
         rdf:about="http://creativecommons.org/licenses/by-sa/4.0/"><cc:permits
           rdf:resource="http://creativecommons.org/ns#Reproduction" /><cc:permits
           rdf:resource="http://creativecommons.org/ns#Distribution" /><cc:requires
           rdf:resource="http://creativecommons.org/ns#Notice" /><cc:requires
           rdf:resource="http://creativecommons.org/ns#Attribution" /><cc:permits
           rdf:resource="http://creativecommons.org/ns#DerivativeWorks" /><cc:requires
           rdf:resource="http://creativecommons.org/ns#ShareAlike" /></cc:License></rdf:RDF></metadata><g
     id="osh-tool-logo"
     inkscape:label="osh-tool-logo"><path
       class="st0"
       d="m 79.074171,14.62292 c 0.615635,-0.615635 1.362486,-1.851243 1.362486,-1.851243 0.08636,-0.11701 0.115891,-0.265723 0.08202,-0.406807 L 80.3503,11.675964 c -0.0317,-0.129048 -0.113721,-0.23948 -0.228562,-0.306173 -0.114841,-0.06781 -0.251517,-0.08531 -0.379445,-0.0492 l -5.313129,1.479497 c -0.19686,0.05466 -0.407857,-0.01862 -0.528157,-0.184823 L 71.460372,9.2528251 C 71.385981,9.1511407 71.354279,9.023213 71.370725,8.8985045 L 71.862771,5.326116 c 0.02624,-0.1935712 0.165088,-0.3532009 0.35432,-0.4056877 L 77.828765,3.3589124 C 78.083571,3.2878103 78.235573,3.027616 78.173218,2.7695211 L 77.952354,1.866329 c -0.0317,-0.1268779 -0.111552,-0.2361904 -0.224153,-0.3040032 0,0 -0.439559,-0.2908467 -0.759939,-0.4570547 -3.187415,-1.64570472 -7.200483,-1.13392386 -9.872968,1.5384918 -1.974832,1.9748316 -2.747927,4.6789492 -2.385978,7.2464613 0.27881,1.9737118 0.148712,3.0234468 -0.703113,3.9244698 -0.851825,0.901023 -17.930805,17.437779 -17.930805,17.437779 -0.221984,0.211067 -0.348792,0.503034 -0.352081,0.809206 -0.0044,0.306173 0.115891,0.601428 0.333536,0.817954 l 2.781798,2.781798 c 0.217575,0.217575 0.511781,0.337875 0.817953,0.333536 0.306173,-0.0033 0.59814,-0.130097 0.810256,-0.351032 l 17.7154,-18.140752 c 0,0 1.359197,-1.166745 2.910845,-0.637469 2.698519,0.921737 5.817072,-0.07768 7.981066,-2.242794 z"
       id="wrench"
       style="fill:#666666;stroke-width:0.413412"
       inkscape:label="wrench" /><path
       d="m 43.271986,20.404955 v -4.650878 h 9.990087 v 4.650878 z"
       id="hyphen"
       style="font-weight:bold;font-size:144px;line-height:125%;font-family:'Open Sans';-inkscape-font-specification:'Open Sans Bold';letter-spacing:0px;word-spacing:0px;white-space:pre;stroke-width:0.264583px;opacity:0.3"
       inkscape:label="hyphen" /><path
       id="gear"
       style="fill:#0099b0;fill-opacity:1;stroke:none;stroke-width:3.96875"
       d="m 20.114021,-3.5e-6 a 20.113853,20.113853 0 0 0 -2.783293,0.1999878 l -1.076937,5.2182861 a 15.204329,15.204329 0 0 0 -3.808553,1.56993 L 8.0062327,4.068482 A 20.113853,20.113853 0 0 0 4.0684886,8.0057094 L 6.988207,12.444715 A 15.204329,15.204329 0 0 0 5.4187937,16.253268 L 0.20050762,17.330205 A 20.113853,20.113853 0 0 0 3.06e-6,20.113497 20.113853,20.113853 0 0 0 0.20050762,22.89679 L 5.4187937,23.974244 A 15.204329,15.204329 0 0 0 6.988207,27.78228 l -2.9197184,4.439006 a 20.113853,20.113853 0 0 0 3.9382609,3.937744 l 4.4384885,-2.919719 a 15.204329,15.204329 0 0 0 1.977141,0.960665 l 3.58376,-8.870776 a 5.6326017,5.6326017 0 0 1 -3.524849,-5.215703 5.6326017,5.6326017 0 0 1 5.632731,-5.632214 5.6326017,5.6326017 0 0 1 5.632214,5.632214 5.6326017,5.6326017 0 0 1 -3.522782,5.221904 l 3.581177,8.864058 a 15.204329,15.204329 0 0 0 1.978173,-0.960148 l 4.438489,2.919719 a 20.113853,20.113853 0 0 0 3.937744,-3.937744 L 33.239318,27.78228 a 15.204329,15.204329 0 0 0 1.56993,-3.808036 l 5.218286,-1.077454 a 20.113853,20.113853 0 0 0 0.199988,-2.783293 20.113853,20.113853 0 0 0 -0.19482,-2.781742 L 34.820617,16.255852 A 15.204329,15.204329 0 0 0 33.240351,12.443681 L 36.166788,7.9948573 A 20.113853,20.113853 0 0 0 32.232661,4.0607305 L 27.783837,6.9871669 A 15.204329,15.204329 0 0 0 23.971666,5.4069016 L 22.895763,0.1948166 A 20.113853,20.113853 0 0 0 20.114021,-3.5e-6 Z"
       inkscape:label="gear"><title
         id="title6314">OSH Cogwheel clean</title></path></g></svg>
